solid robot_base_plate
 facet normal 0 0 0
  outer loop
   vertex -0.3 -0.3 -0.02
   vertex 0.3 -0.3 -0.02
   vertex 0.3 0.3 -0.02
  endloop
 endfacet
 facet normal 0 0 0
  outer loop
   vertex -0.3 -0.3 -0.02
   vertex 0.3 0.3 -0.02
   vertex -0.3 0.3 -0.02
  endloop
 endfacet
 facet normal 0 0 0
  outer loop
   vertex -0.3 -0.3 0.02
   vertex 0.3 0.3 0.02
   vertex 0.3 -0.3 0.02
  endloop
 endfacet
 facet normal 0 0 0
  outer loop
   vertex -0.3 -0.3 0.02
   vertex -0.3 0.3 0.02
   vertex 0.3 0.3 0.02
  endloop
 endfacet
 facet normal 0 0 0
  outer loop
   vertex -0.3 -0.3 -0.02
   vertex -0.3 -0.3 0.02
   vertex 0.3 -0.3 0.02
  endloop
 endfacet
 facet normal 0 0 0
  outer loop
   vertex -0.3 -0.3 -0.02
   vertex 0.3 -0.3 0.02
   vertex 0.3 -0.3 -0.02
  endloop
 endfacet
 facet normal 0 0 0
  outer loop
   vertex 0.3 -0.3 -0.02
   vertex 0.3 -0.3 0.02
   vertex 0.3 0.3 0.02
  endloop
 endfacet
 facet normal 0 0 0
  outer loop
   vertex 0.3 -0.3 -0.02
   vertex 0.3 0.3 0.02
   vertex 0.3 0.3 -0.02
  endloop
 endfacet
 facet normal 0 0 0
  outer loop
   vertex 0.3 0.3 -0.02
   vertex 0.3 0.3 0.02
   vertex -0.3 0.3 0.02
  endloop
 endfacet
 facet normal 0 0 0
  outer loop
   vertex 0.3 0.3 -0.02
   vertex -0.3 0.3 0.02
   vertex -0.3 0.3 -0.02
  endloop
 endfacet
 facet normal 0 0 0
  outer loop
   vertex -0.3 0.3 -0.02
   vertex -0.3 0.3 0.02
   vertex -0.3 -0.3 0.02
  endloop
 endfacet
 facet normal 0 0 0
  outer loop
   vertex -0.3 0.3 -0.02
   vertex -0.3 -0.3 0.02
   vertex -0.3 -0.3 -0.02
  endloop
 endfacet
endsolid robot_base_plate
