solid bin_small
 facet normal 0 0 0
  outer loop
   vertex -0.2 -0.15 -0.1
   vertex 0.2 -0.15 -0.1
   vertex 0.2 0.15 -0.1
  endloop
 endfacet
 facet normal 0 0 0
  outer loop
   vertex -0.2 -0.15 -0.1
   vertex 0.2 0.15 -0.1
   vertex -0.2 0.15 -0.1
  endloop
 endfacet
 facet normal 0 0 0
  outer loop
   vertex -0.2 -0.15 0.1
   vertex 0.2 0.15 0.1
   vertex 0.2 -0.15 0.1
  endloop
 endfacet
 facet normal 0 0 0
  outer loop
   vertex -0.2 -0.15 0.1
   vertex -0.2 0.15 0.1
   vertex 0.2 0.15 0.1
  endloop
 endfacet
 facet normal 0 0 0
  outer loop
   vertex -0.2 -0.15 -0.1
   vertex -0.2 -0.15 0.1
   vertex 0.2 -0.15 0.1
  endloop
 endfacet
 facet normal 0 0 0
  outer loop
   vertex -0.2 -0.15 -0.1
   vertex 0.2 -0.15 0.1
   vertex 0.2 -0.15 -0.1
  endloop
 endfacet
 facet normal 0 0 0
  outer loop
   vertex 0.2 -0.15 -0.1
   vertex 0.2 -0.15 0.1
   vertex 0.2 0.15 0.1
  endloop
 endfacet
 facet normal 0 0 0
  outer loop
   vertex 0.2 -0.15 -0.1
   vertex 0.2 0.15 0.1
   vertex 0.2 0.15 -0.1
  endloop
 endfacet
 facet normal 0 0 0
  outer loop
   vertex 0.2 0.15 -0.1
   vertex 0.2 0.15 0.1
   vertex -0.2 0.15 0.1
  endloop
 endfacet
 facet normal 0 0 0
  outer loop
   vertex 0.2 0.15 -0.1
   vertex -0.2 0.15 0.1
   vertex -0.2 0.15 -0.1
  endloop
 endfacet
 facet normal 0 0 0
  outer loop
   vertex -0.2 0.15 -0.1
   vertex -0.2 0.15 0.1
   vertex -0.2 -0.15 0.1
  endloop
 endfacet
 facet normal 0 0 0
  outer loop
   vertex -0.2 0.15 -0.1
   vertex -0.2 -0.15 0.1
   vertex -0.2 -0.15 -0.1
  endloop
 endfacet
endsolid bin_small
