solid flat_plate_camera_bracket_collision
  facet normal 0 0 0
    outer loop
      vertex -0.425 -0.325 -0.825
      vertex 0.425 -0.325 -0.825
      vertex 0.425 0.325 -0.825
    endloop
  endfacet
  facet normal 0 0 0
    outer loop
      vertex -0.425 -0.325 -0.825
      vertex 0.425 0.325 -0.825
      vertex -0.425 0.325 -0.825
    endloop
  endfacet
  facet normal 0 0 0
    outer loop
      vertex -0.425 -0.325 0.825
      vertex 0.425 0.325 0.825
      vertex 0.425 -0.325 0.825
    endloop
  endfacet
  facet normal 0 0 0
    outer loop
      vertex -0.425 -0.325 0.825
      vertex -0.425 0.325 0.825
      vertex 0.425 0.325 0.825
    endloop
  endfacet
  facet normal 0 0 0
    outer loop
      vertex -0.425 -0.325 -0.825
      vertex -0.425 -0.325 0.825
      vertex 0.425 -0.325 0.825
    endloop
  endfacet
  facet normal 0 0 0
    outer loop
      vertex -0.425 -0.325 -0.825
      vertex 0.425 -0.325 0.825
      vertex 0.425 -0.325 -0.825
    endloop
  endfacet
  facet normal 0 0 0
    outer loop
      vertex 0.425 -0.325 -0.825
      vertex 0.425 -0.325 0.825
      vertex 0.425 0.325 0.825
    endloop
  endfacet
  facet normal 0 0 0
    outer loop
      vertex 0.425 -0.325 -0.825
      vertex 0.425 0.325 0.825
      vertex 0.425 0.325 -0.825
    endloop
  endfacet
  facet normal 0 0 0
    outer loop
      vertex 0.425 0.325 -0.825
      vertex 0.425 0.325 0.825
      vertex -0.425 0.325 0.825
    endloop
  endfacet
  facet normal 0 0 0
    outer loop
      vertex 0.425 0.325 -0.825
      vertex -0.425 0.325 0.825
      vertex -0.425 0.325 -0.825
    endloop
  endfacet
  facet normal 0 0 0
    outer loop
      vertex -0.425 0.325 -0.825
      vertex -0.425 0.325 0.825
      vertex -0.425 -0.325 0.825
    endloop
  endfacet
  facet normal 0 0 0
    outer loop
      vertex -0.425 0.325 -0.825
      vertex -0.425 -0.325 0.825
      vertex -0.425 -0.325 -0.825
    endloop
  endfacet
endsolid flat_plate_camera_bracket_collision
