solid tslot_camera_frame
  facet normal 0 0 0
    outer loop
      vertex -0.4 -0.3 -0.8
      vertex 0.4 -0.3 -0.8
      vertex 0.4 0.3 -0.8
    endloop
  endfacet
  facet normal 0 0 0
    outer loop
      vertex -0.4 -0.3 -0.8
      vertex 0.4 0.3 -0.8
      vertex -0.4 0.3 -0.8
    endloop
  endfacet
  facet normal 0 0 0
    outer loop
      vertex -0.4 -0.3 0.8
      vertex 0.4 0.3 0.8
      vertex 0.4 -0.3 0.8
    endloop
  endfacet
  facet normal 0 0 0
    outer loop
      vertex -0.4 -0.3 0.8
      vertex -0.4 0.3 0.8
      vertex 0.4 0.3 0.8
    endloop
  endfacet
  facet normal 0 0 0
    outer loop
      vertex -0.4 -0.3 -0.8
      vertex -0.4 -0.3 0.8
      vertex 0.4 -0.3 0.8
    endloop
  endfacet
  facet normal 0 0 0
    outer loop
      vertex -0.4 -0.3 -0.8
      vertex 0.4 -0.3 0.8
      vertex 0.4 -0.3 -0.8
    endloop
  endfacet
  facet normal 0 0 0
    outer loop
      vertex 0.4 -0.3 -0.8
      vertex 0.4 -0.3 0.8
      vertex 0.4 0.3 0.8
    endloop
  endfacet
  facet normal 0 0 0
    outer loop
      vertex 0.4 -0.3 -0.8
      vertex 0.4 0.3 0.8
      vertex 0.4 0.3 -0.8
    endloop
  endfacet
  facet normal 0 0 0
    outer loop
      vertex 0.4 0.3 -0.8
      vertex 0.4 0.3 0.8
      vertex -0.4 0.3 0.8
    endloop
  endfacet
  facet normal 0 0 0
    outer loop
      vertex 0.4 0.3 -0.8
      vertex -0.4 0.3 0.8
      vertex -0.4 0.3 -0.8
    endloop
  endfacet
  facet normal 0 0 0
    outer loop
      vertex -0.4 0.3 -0.8
      vertex -0.4 0.3 0.8
      vertex -0.4 -0.3 0.8
    endloop
  endfacet
  facet normal 0 0 0
    outer loop
      vertex -0.4 0.3 -0.8
      vertex -0.4 -0.3 0.8
      vertex -0.4 -0.3 -0.8
    endloop
  endfacet
endsolid tslot_camera_frame
