solid conveyor_placeholder
 facet normal 0 0 0
  outer loop
   vertex -0.6 -0.2 -0.125
   vertex 0.6 -0.2 -0.125
   vertex 0.6 0.2 -0.125
  endloop
 endfacet
 facet normal 0 0 0
  outer loop
   vertex -0.6 -0.2 -0.125
   vertex 0.6 0.2 -0.125
   vertex -0.6 0.2 -0.125
  endloop
 endfacet
 facet normal 0 0 0
  outer loop
   vertex -0.6 -0.2 0.125
   vertex 0.6 0.2 0.125
   vertex 0.6 -0.2 0.125
  endloop
 endfacet
 facet normal 0 0 0
  outer loop
   vertex -0.6 -0.2 0.125
   vertex -0.6 0.2 0.125
   vertex 0.6 0.2 0.125
  endloop
 endfacet
 facet normal 0 0 0
  outer loop
   vertex -0.6 -0.2 -0.125
   vertex -0.6 -0.2 0.125
   vertex 0.6 -0.2 0.125
  endloop
 endfacet
 facet normal 0 0 0
  outer loop
   vertex -0.6 -0.2 -0.125
   vertex 0.6 -0.2 0.125
   vertex 0.6 -0.2 -0.125
  endloop
 endfacet
 facet normal 0 0 0
  outer loop
   vertex 0.6 -0.2 -0.125
   vertex 0.6 -0.2 0.125
   vertex 0.6 0.2 0.125
  endloop
 endfacet
 facet normal 0 0 0
  outer loop
   vertex 0.6 -0.2 -0.125
   vertex 0.6 0.2 0.125
   vertex 0.6 0.2 -0.125
  endloop
 endfacet
 facet normal 0 0 0
  outer loop
   vertex 0.6 0.2 -0.125
   vertex 0.6 0.2 0.125
   vertex -0.6 0.2 0.125
  endloop
 endfacet
 facet normal 0 0 0
  outer loop
   vertex 0.6 0.2 -0.125
   vertex -0.6 0.2 0.125
   vertex -0.6 0.2 -0.125
  endloop
 endfacet
 facet normal 0 0 0
  outer loop
   vertex -0.6 0.2 -0.125
   vertex -0.6 0.2 0.125
   vertex -0.6 -0.2 0.125
  endloop
 endfacet
 facet normal 0 0 0
  outer loop
   vertex -0.6 0.2 -0.125
   vertex -0.6 -0.2 0.125
   vertex -0.6 -0.2 -0.125
  endloop
 endfacet
endsolid conveyor_placeholder
