solid pick_box
 facet normal 0 0 0
  outer loop
   vertex -0.04 -0.04 -0.04
   vertex 0.04 -0.04 -0.04
   vertex 0.04 0.04 -0.04
  endloop
 endfacet
 facet normal 0 0 0
  outer loop
   vertex -0.04 -0.04 -0.04
   vertex 0.04 0.04 -0.04
   vertex -0.04 0.04 -0.04
  endloop
 endfacet
 facet normal 0 0 0
  outer loop
   vertex -0.04 -0.04 0.04
   vertex 0.04 0.04 0.04
   vertex 0.04 -0.04 0.04
  endloop
 endfacet
 facet normal 0 0 0
  outer loop
   vertex -0.04 -0.04 0.04
   vertex -0.04 0.04 0.04
   vertex 0.04 0.04 0.04
  endloop
 endfacet
 facet normal 0 0 0
  outer loop
   vertex -0.04 -0.04 -0.04
   vertex -0.04 -0.04 0.04
   vertex 0.04 -0.04 0.04
  endloop
 endfacet
 facet normal 0 0 0
  outer loop
   vertex -0.04 -0.04 -0.04
   vertex 0.04 -0.04 0.04
   vertex 0.04 -0.04 -0.04
  endloop
 endfacet
 facet normal 0 0 0
  outer loop
   vertex 0.04 -0.04 -0.04
   vertex 0.04 -0.04 0.04
   vertex 0.04 0.04 0.04
  endloop
 endfacet
 facet normal 0 0 0
  outer loop
   vertex 0.04 -0.04 -0.04
   vertex 0.04 0.04 0.04
   vertex 0.04 0.04 -0.04
  endloop
 endfacet
 facet normal 0 0 0
  outer loop
   vertex 0.04 0.04 -0.04
   vertex 0.04 0.04 0.04
   vertex -0.04 0.04 0.04
  endloop
 endfacet
 facet normal 0 0 0
  outer loop
   vertex 0.04 0.04 -0.04
   vertex -0.04 0.04 0.04
   vertex -0.04 0.04 -0.04
  endloop
 endfacet
 facet normal 0 0 0
  outer loop
   vertex -0.04 0.04 -0.04
   vertex -0.04 0.04 0.04
   vertex -0.04 -0.04 0.04
  endloop
 endfacet
 facet normal 0 0 0
  outer loop
   vertex -0.04 0.04 -0.04
   vertex -0.04 -0.04 0.04
   vertex -0.04 -0.04 -0.04
  endloop
 endfacet
endsolid pick_box
