solid table_large
 facet normal 0 0 0
  outer loop
   vertex -0.9 -0.45 -0.375
   vertex 0.9 -0.45 -0.375
   vertex 0.9 0.45 -0.375
  endloop
 endfacet
 facet normal 0 0 0
  outer loop
   vertex -0.9 -0.45 -0.375
   vertex 0.9 0.45 -0.375
   vertex -0.9 0.45 -0.375
  endloop
 endfacet
 facet normal 0 0 0
  outer loop
   vertex -0.9 -0.45 0.375
   vertex 0.9 0.45 0.375
   vertex 0.9 -0.45 0.375
  endloop
 endfacet
 facet normal 0 0 0
  outer loop
   vertex -0.9 -0.45 0.375
   vertex -0.9 0.45 0.375
   vertex 0.9 0.45 0.375
  endloop
 endfacet
 facet normal 0 0 0
  outer loop
   vertex -0.9 -0.45 -0.375
   vertex -0.9 -0.45 0.375
   vertex 0.9 -0.45 0.375
  endloop
 endfacet
 facet normal 0 0 0
  outer loop
   vertex -0.9 -0.45 -0.375
   vertex 0.9 -0.45 0.375
   vertex 0.9 -0.45 -0.375
  endloop
 endfacet
 facet normal 0 0 0
  outer loop
   vertex 0.9 -0.45 -0.375
   vertex 0.9 -0.45 0.375
   vertex 0.9 0.45 0.375
  endloop
 endfacet
 facet normal 0 0 0
  outer loop
   vertex 0.9 -0.45 -0.375
   vertex 0.9 0.45 0.375
   vertex 0.9 0.45 -0.375
  endloop
 endfacet
 facet normal 0 0 0
  outer loop
   vertex 0.9 0.45 -0.375
   vertex 0.9 0.45 0.375
   vertex -0.9 0.45 0.375
  endloop
 endfacet
 facet normal 0 0 0
  outer loop
   vertex 0.9 0.45 -0.375
   vertex -0.9 0.45 0.375
   vertex -0.9 0.45 -0.375
  endloop
 endfacet
 facet normal 0 0 0
  outer loop
   vertex -0.9 0.45 -0.375
   vertex -0.9 0.45 0.375
   vertex -0.9 -0.45 0.375
  endloop
 endfacet
 facet normal 0 0 0
  outer loop
   vertex -0.9 0.45 -0.375
   vertex -0.9 -0.45 0.375
   vertex -0.9 -0.45 -0.375
  endloop
 endfacet
endsolid table_large
