solid bin_large
 facet normal 0 0 0
  outer loop
   vertex -0.35 -0.25 -0.175
   vertex 0.35 -0.25 -0.175
   vertex 0.35 0.25 -0.175
  endloop
 endfacet
 facet normal 0 0 0
  outer loop
   vertex -0.35 -0.25 -0.175
   vertex 0.35 0.25 -0.175
   vertex -0.35 0.25 -0.175
  endloop
 endfacet
 facet normal 0 0 0
  outer loop
   vertex -0.35 -0.25 0.175
   vertex 0.35 0.25 0.175
   vertex 0.35 -0.25 0.175
  endloop
 endfacet
 facet normal 0 0 0
  outer loop
   vertex -0.35 -0.25 0.175
   vertex -0.35 0.25 0.175
   vertex 0.35 0.25 0.175
  endloop
 endfacet
 facet normal 0 0 0
  outer loop
   vertex -0.35 -0.25 -0.175
   vertex -0.35 -0.25 0.175
   vertex 0.35 -0.25 0.175
  endloop
 endfacet
 facet normal 0 0 0
  outer loop
   vertex -0.35 -0.25 -0.175
   vertex 0.35 -0.25 0.175
   vertex 0.35 -0.25 -0.175
  endloop
 endfacet
 facet normal 0 0 0
  outer loop
   vertex 0.35 -0.25 -0.175
   vertex 0.35 -0.25 0.175
   vertex 0.35 0.25 0.175
  endloop
 endfacet
 facet normal 0 0 0
  outer loop
   vertex 0.35 -0.25 -0.175
   vertex 0.35 0.25 0.175
   vertex 0.35 0.25 -0.175
  endloop
 endfacet
 facet normal 0 0 0
  outer loop
   vertex 0.35 0.25 -0.175
   vertex 0.35 0.25 0.175
   vertex -0.35 0.25 0.175
  endloop
 endfacet
 facet normal 0 0 0
  outer loop
   vertex 0.35 0.25 -0.175
   vertex -0.35 0.25 0.175
   vertex -0.35 0.25 -0.175
  endloop
 endfacet
 facet normal 0 0 0
  outer loop
   vertex -0.35 0.25 -0.175
   vertex -0.35 0.25 0.175
   vertex -0.35 -0.25 0.175
  endloop
 endfacet
 facet normal 0 0 0
  outer loop
   vertex -0.35 0.25 -0.175
   vertex -0.35 -0.25 0.175
   vertex -0.35 -0.25 -0.175
  endloop
 endfacet
endsolid bin_large
