solid fixture_plate
 facet normal 0 0 0
  outer loop
   vertex -0.25 -0.25 -0.015
   vertex 0.25 -0.25 -0.015
   vertex 0.25 0.25 -0.015
  endloop
 endfacet
 facet normal 0 0 0
  outer loop
   vertex -0.25 -0.25 -0.015
   vertex 0.25 0.25 -0.015
   vertex -0.25 0.25 -0.015
  endloop
 endfacet
 facet normal 0 0 0
  outer loop
   vertex -0.25 -0.25 0.015
   vertex 0.25 0.25 0.015
   vertex 0.25 -0.25 0.015
  endloop
 endfacet
 facet normal 0 0 0
  outer loop
   vertex -0.25 -0.25 0.015
   vertex -0.25 0.25 0.015
   vertex 0.25 0.25 0.015
  endloop
 endfacet
 facet normal 0 0 0
  outer loop
   vertex -0.25 -0.25 -0.015
   vertex -0.25 -0.25 0.015
   vertex 0.25 -0.25 0.015
  endloop
 endfacet
 facet normal 0 0 0
  outer loop
   vertex -0.25 -0.25 -0.015
   vertex 0.25 -0.25 0.015
   vertex 0.25 -0.25 -0.015
  endloop
 endfacet
 facet normal 0 0 0
  outer loop
   vertex 0.25 -0.25 -0.015
   vertex 0.25 -0.25 0.015
   vertex 0.25 0.25 0.015
  endloop
 endfacet
 facet normal 0 0 0
  outer loop
   vertex 0.25 -0.25 -0.015
   vertex 0.25 0.25 0.015
   vertex 0.25 0.25 -0.015
  endloop
 endfacet
 facet normal 0 0 0
  outer loop
   vertex 0.25 0.25 -0.015
   vertex 0.25 0.25 0.015
   vertex -0.25 0.25 0.015
  endloop
 endfacet
 facet normal 0 0 0
  outer loop
   vertex 0.25 0.25 -0.015
   vertex -0.25 0.25 0.015
   vertex -0.25 0.25 -0.015
  endloop
 endfacet
 facet normal 0 0 0
  outer loop
   vertex -0.25 0.25 -0.015
   vertex -0.25 0.25 0.015
   vertex -0.25 -0.25 0.015
  endloop
 endfacet
 facet normal 0 0 0
  outer loop
   vertex -0.25 0.25 -0.015
   vertex -0.25 -0.25 0.015
   vertex -0.25 -0.25 -0.015
  endloop
 endfacet
endsolid fixture_plate
