solid workbench
 facet normal 0 0 0
  outer loop
   vertex -0.75 -0.375 -0.45
   vertex 0.75 -0.375 -0.45
   vertex 0.75 0.375 -0.45
  endloop
 endfacet
 facet normal 0 0 0
  outer loop
   vertex -0.75 -0.375 -0.45
   vertex 0.75 0.375 -0.45
   vertex -0.75 0.375 -0.45
  endloop
 endfacet
 facet normal 0 0 0
  outer loop
   vertex -0.75 -0.375 0.45
   vertex 0.75 0.375 0.45
   vertex 0.75 -0.375 0.45
  endloop
 endfacet
 facet normal 0 0 0
  outer loop
   vertex -0.75 -0.375 0.45
   vertex -0.75 0.375 0.45
   vertex 0.75 0.375 0.45
  endloop
 endfacet
 facet normal 0 0 0
  outer loop
   vertex -0.75 -0.375 -0.45
   vertex -0.75 -0.375 0.45
   vertex 0.75 -0.375 0.45
  endloop
 endfacet
 facet normal 0 0 0
  outer loop
   vertex -0.75 -0.375 -0.45
   vertex 0.75 -0.375 0.45
   vertex 0.75 -0.375 -0.45
  endloop
 endfacet
 facet normal 0 0 0
  outer loop
   vertex 0.75 -0.375 -0.45
   vertex 0.75 -0.375 0.45
   vertex 0.75 0.375 0.45
  endloop
 endfacet
 facet normal 0 0 0
  outer loop
   vertex 0.75 -0.375 -0.45
   vertex 0.75 0.375 0.45
   vertex 0.75 0.375 -0.45
  endloop
 endfacet
 facet normal 0 0 0
  outer loop
   vertex 0.75 0.375 -0.45
   vertex 0.75 0.375 0.45
   vertex -0.75 0.375 0.45
  endloop
 endfacet
 facet normal 0 0 0
  outer loop
   vertex 0.75 0.375 -0.45
   vertex -0.75 0.375 0.45
   vertex -0.75 0.375 -0.45
  endloop
 endfacet
 facet normal 0 0 0
  outer loop
   vertex -0.75 0.375 -0.45
   vertex -0.75 0.375 0.45
   vertex -0.75 -0.375 0.45
  endloop
 endfacet
 facet normal 0 0 0
  outer loop
   vertex -0.75 0.375 -0.45
   vertex -0.75 -0.375 0.45
   vertex -0.75 -0.375 -0.45
  endloop
 endfacet
endsolid workbench
