solid tray
 facet normal 0 0 0
  outer loop
   vertex -0.25 -0.175 -0.03
   vertex 0.25 -0.175 -0.03
   vertex 0.25 0.175 -0.03
  endloop
 endfacet
 facet normal 0 0 0
  outer loop
   vertex -0.25 -0.175 -0.03
   vertex 0.25 0.175 -0.03
   vertex -0.25 0.175 -0.03
  endloop
 endfacet
 facet normal 0 0 0
  outer loop
   vertex -0.25 -0.175 0.03
   vertex 0.25 0.175 0.03
   vertex 0.25 -0.175 0.03
  endloop
 endfacet
 facet normal 0 0 0
  outer loop
   vertex -0.25 -0.175 0.03
   vertex -0.25 0.175 0.03
   vertex 0.25 0.175 0.03
  endloop
 endfacet
 facet normal 0 0 0
  outer loop
   vertex -0.25 -0.175 -0.03
   vertex -0.25 -0.175 0.03
   vertex 0.25 -0.175 0.03
  endloop
 endfacet
 facet normal 0 0 0
  outer loop
   vertex -0.25 -0.175 -0.03
   vertex 0.25 -0.175 0.03
   vertex 0.25 -0.175 -0.03
  endloop
 endfacet
 facet normal 0 0 0
  outer loop
   vertex 0.25 -0.175 -0.03
   vertex 0.25 -0.175 0.03
   vertex 0.25 0.175 0.03
  endloop
 endfacet
 facet normal 0 0 0
  outer loop
   vertex 0.25 -0.175 -0.03
   vertex 0.25 0.175 0.03
   vertex 0.25 0.175 -0.03
  endloop
 endfacet
 facet normal 0 0 0
  outer loop
   vertex 0.25 0.175 -0.03
   vertex 0.25 0.175 0.03
   vertex -0.25 0.175 0.03
  endloop
 endfacet
 facet normal 0 0 0
  outer loop
   vertex 0.25 0.175 -0.03
   vertex -0.25 0.175 0.03
   vertex -0.25 0.175 -0.03
  endloop
 endfacet
 facet normal 0 0 0
  outer loop
   vertex -0.25 0.175 -0.03
   vertex -0.25 0.175 0.03
   vertex -0.25 -0.175 0.03
  endloop
 endfacet
 facet normal 0 0 0
  outer loop
   vertex -0.25 0.175 -0.03
   vertex -0.25 -0.175 0.03
   vertex -0.25 -0.175 -0.03
  endloop
 endfacet
endsolid tray
