solid pedestal
 facet normal 0 0 0
  outer loop
   vertex -0.2 -0.2 -0.35
   vertex 0.2 -0.2 -0.35
   vertex 0.2 0.2 -0.35
  endloop
 endfacet
 facet normal 0 0 0
  outer loop
   vertex -0.2 -0.2 -0.35
   vertex 0.2 0.2 -0.35
   vertex -0.2 0.2 -0.35
  endloop
 endfacet
 facet normal 0 0 0
  outer loop
   vertex -0.2 -0.2 0.35
   vertex 0.2 0.2 0.35
   vertex 0.2 -0.2 0.35
  endloop
 endfacet
 facet normal 0 0 0
  outer loop
   vertex -0.2 -0.2 0.35
   vertex -0.2 0.2 0.35
   vertex 0.2 0.2 0.35
  endloop
 endfacet
 facet normal 0 0 0
  outer loop
   vertex -0.2 -0.2 -0.35
   vertex -0.2 -0.2 0.35
   vertex 0.2 -0.2 0.35
  endloop
 endfacet
 facet normal 0 0 0
  outer loop
   vertex -0.2 -0.2 -0.35
   vertex 0.2 -0.2 0.35
   vertex 0.2 -0.2 -0.35
  endloop
 endfacet
 facet normal 0 0 0
  outer loop
   vertex 0.2 -0.2 -0.35
   vertex 0.2 -0.2 0.35
   vertex 0.2 0.2 0.35
  endloop
 endfacet
 facet normal 0 0 0
  outer loop
   vertex 0.2 -0.2 -0.35
   vertex 0.2 0.2 0.35
   vertex 0.2 0.2 -0.35
  endloop
 endfacet
 facet normal 0 0 0
  outer loop
   vertex 0.2 0.2 -0.35
   vertex 0.2 0.2 0.35
   vertex -0.2 0.2 0.35
  endloop
 endfacet
 facet normal 0 0 0
  outer loop
   vertex 0.2 0.2 -0.35
   vertex -0.2 0.2 0.35
   vertex -0.2 0.2 -0.35
  endloop
 endfacet
 facet normal 0 0 0
  outer loop
   vertex -0.2 0.2 -0.35
   vertex -0.2 0.2 0.35
   vertex -0.2 -0.2 0.35
  endloop
 endfacet
 facet normal 0 0 0
  outer loop
   vertex -0.2 0.2 -0.35
   vertex -0.2 -0.2 0.35
   vertex -0.2 -0.2 -0.35
  endloop
 endfacet
endsolid pedestal
