solid camera_stand
 facet normal 0 0 0
  outer loop
   vertex -0.04 -0.04 -0.6
   vertex 0.04 -0.04 -0.6
   vertex 0.04 0.04 -0.6
  endloop
 endfacet
 facet normal 0 0 0
  outer loop
   vertex -0.04 -0.04 -0.6
   vertex 0.04 0.04 -0.6
   vertex -0.04 0.04 -0.6
  endloop
 endfacet
 facet normal 0 0 0
  outer loop
   vertex -0.04 -0.04 0.6
   vertex 0.04 0.04 0.6
   vertex 0.04 -0.04 0.6
  endloop
 endfacet
 facet normal 0 0 0
  outer loop
   vertex -0.04 -0.04 0.6
   vertex -0.04 0.04 0.6
   vertex 0.04 0.04 0.6
  endloop
 endfacet
 facet normal 0 0 0
  outer loop
   vertex -0.04 -0.04 -0.6
   vertex -0.04 -0.04 0.6
   vertex 0.04 -0.04 0.6
  endloop
 endfacet
 facet normal 0 0 0
  outer loop
   vertex -0.04 -0.04 -0.6
   vertex 0.04 -0.04 0.6
   vertex 0.04 -0.04 -0.6
  endloop
 endfacet
 facet normal 0 0 0
  outer loop
   vertex 0.04 -0.04 -0.6
   vertex 0.04 -0.04 0.6
   vertex 0.04 0.04 0.6
  endloop
 endfacet
 facet normal 0 0 0
  outer loop
   vertex 0.04 -0.04 -0.6
   vertex 0.04 0.04 0.6
   vertex 0.04 0.04 -0.6
  endloop
 endfacet
 facet normal 0 0 0
  outer loop
   vertex 0.04 0.04 -0.6
   vertex 0.04 0.04 0.6
   vertex -0.04 0.04 0.6
  endloop
 endfacet
 facet normal 0 0 0
  outer loop
   vertex 0.04 0.04 -0.6
   vertex -0.04 0.04 0.6
   vertex -0.04 0.04 -0.6
  endloop
 endfacet
 facet normal 0 0 0
  outer loop
   vertex -0.04 0.04 -0.6
   vertex -0.04 0.04 0.6
   vertex -0.04 -0.04 0.6
  endloop
 endfacet
 facet normal 0 0 0
  outer loop
   vertex -0.04 0.04 -0.6
   vertex -0.04 -0.04 0.6
   vertex -0.04 -0.04 -0.6
  endloop
 endfacet
endsolid camera_stand
