solid cylinder_object
 facet normal 0 0 0
  outer loop
   vertex 0.03 0.0 -0.06
   vertex 0.0277163859753386 0.011480502970952693 -0.06
   vertex 0.0277163859753386 0.011480502970952693 0.06
  endloop
 endfacet
 facet normal 0 0 0
  outer loop
   vertex 0.03 0.0 -0.06
   vertex 0.0277163859753386 0.011480502970952693 0.06
   vertex 0.03 0.0 0.06
  endloop
 endfacet
 facet normal 0 0 0
  outer loop
   vertex 0 0 -0.06
   vertex 0.0277163859753386 0.011480502970952693 -0.06
   vertex 0.03 0.0 -0.06
  endloop
 endfacet
 facet normal 0 0 0
  outer loop
   vertex 0 0 0.06
   vertex 0.03 0.0 0.06
   vertex 0.0277163859753386 0.011480502970952693 0.06
  endloop
 endfacet
 facet normal 0 0 0
  outer loop
   vertex 0.0277163859753386 0.011480502970952693 -0.06
   vertex 0.021213203435596427 0.021213203435596423 -0.06
   vertex 0.021213203435596427 0.021213203435596423 0.06
  endloop
 endfacet
 facet normal 0 0 0
  outer loop
   vertex 0.0277163859753386 0.011480502970952693 -0.06
   vertex 0.021213203435596427 0.021213203435596423 0.06
   vertex 0.0277163859753386 0.011480502970952693 0.06
  endloop
 endfacet
 facet normal 0 0 0
  outer loop
   vertex 0 0 -0.06
   vertex 0.021213203435596427 0.021213203435596423 -0.06
   vertex 0.0277163859753386 0.011480502970952693 -0.06
  endloop
 endfacet
 facet normal 0 0 0
  outer loop
   vertex 0 0 0.06
   vertex 0.0277163859753386 0.011480502970952693 0.06
   vertex 0.021213203435596427 0.021213203435596423 0.06
  endloop
 endfacet
 facet normal 0 0 0
  outer loop
   vertex 0.021213203435596427 0.021213203435596423 -0.06
   vertex 0.011480502970952695 0.0277163859753386 -0.06
   vertex 0.011480502970952695 0.0277163859753386 0.06
  endloop
 endfacet
 facet normal 0 0 0
  outer loop
   vertex 0.021213203435596427 0.021213203435596423 -0.06
   vertex 0.011480502970952695 0.0277163859753386 0.06
   vertex 0.021213203435596427 0.021213203435596423 0.06
  endloop
 endfacet
 facet normal 0 0 0
  outer loop
   vertex 0 0 -0.06
   vertex 0.011480502970952695 0.0277163859753386 -0.06
   vertex 0.021213203435596427 0.021213203435596423 -0.06
  endloop
 endfacet
 facet normal 0 0 0
  outer loop
   vertex 0 0 0.06
   vertex 0.021213203435596427 0.021213203435596423 0.06
   vertex 0.011480502970952695 0.0277163859753386 0.06
  endloop
 endfacet
 facet normal 0 0 0
  outer loop
   vertex 0.011480502970952695 0.0277163859753386 -0.06
   vertex 1.8369701987210296e-18 0.03 -0.06
   vertex 1.8369701987210296e-18 0.03 0.06
  endloop
 endfacet
 facet normal 0 0 0
  outer loop
   vertex 0.011480502970952695 0.0277163859753386 -0.06
   vertex 1.8369701987210296e-18 0.03 0.06
   vertex 0.011480502970952695 0.0277163859753386 0.06
  endloop
 endfacet
 facet normal 0 0 0
  outer loop
   vertex 0 0 -0.06
   vertex 1.8369701987210296e-18 0.03 -0.06
   vertex 0.011480502970952695 0.0277163859753386 -0.06
  endloop
 endfacet
 facet normal 0 0 0
  outer loop
   vertex 0 0 0.06
   vertex 0.011480502970952695 0.0277163859753386 0.06
   vertex 1.8369701987210296e-18 0.03 0.06
  endloop
 endfacet
 facet normal 0 0 0
  outer loop
   vertex 1.8369701987210296e-18 0.03 -0.06
   vertex -0.011480502970952692 0.0277163859753386 -0.06
   vertex -0.011480502970952692 0.0277163859753386 0.06
  endloop
 endfacet
 facet normal 0 0 0
  outer loop
   vertex 1.8369701987210296e-18 0.03 -0.06
   vertex -0.011480502970952692 0.0277163859753386 0.06
   vertex 1.8369701987210296e-18 0.03 0.06
  endloop
 endfacet
 facet normal 0 0 0
  outer loop
   vertex 0 0 -0.06
   vertex -0.011480502970952692 0.0277163859753386 -0.06
   vertex 1.8369701987210296e-18 0.03 -0.06
  endloop
 endfacet
 facet normal 0 0 0
  outer loop
   vertex 0 0 0.06
   vertex 1.8369701987210296e-18 0.03 0.06
   vertex -0.011480502970952692 0.0277163859753386 0.06
  endloop
 endfacet
 facet normal 0 0 0
  outer loop
   vertex -0.011480502970952692 0.0277163859753386 -0.06
   vertex -0.021213203435596423 0.021213203435596427 -0.06
   vertex -0.021213203435596423 0.021213203435596427 0.06
  endloop
 endfacet
 facet normal 0 0 0
  outer loop
   vertex -0.011480502970952692 0.0277163859753386 -0.06
   vertex -0.021213203435596423 0.021213203435596427 0.06
   vertex -0.011480502970952692 0.0277163859753386 0.06
  endloop
 endfacet
 facet normal 0 0 0
  outer loop
   vertex 0 0 -0.06
   vertex -0.021213203435596423 0.021213203435596427 -0.06
   vertex -0.011480502970952692 0.0277163859753386 -0.06
  endloop
 endfacet
 facet normal 0 0 0
  outer loop
   vertex 0 0 0.06
   vertex -0.011480502970952692 0.0277163859753386 0.06
   vertex -0.021213203435596423 0.021213203435596427 0.06
  endloop
 endfacet
 facet normal 0 0 0
  outer loop
   vertex -0.021213203435596423 0.021213203435596427 -0.06
   vertex -0.0277163859753386 0.011480502970952697 -0.06
   vertex -0.0277163859753386 0.011480502970952697 0.06
  endloop
 endfacet
 facet normal 0 0 0
  outer loop
   vertex -0.021213203435596423 0.021213203435596427 -0.06
   vertex -0.0277163859753386 0.011480502970952697 0.06
   vertex -0.021213203435596423 0.021213203435596427 0.06
  endloop
 endfacet
 facet normal 0 0 0
  outer loop
   vertex 0 0 -0.06
   vertex -0.0277163859753386 0.011480502970952697 -0.06
   vertex -0.021213203435596423 0.021213203435596427 -0.06
  endloop
 endfacet
 facet normal 0 0 0
  outer loop
   vertex 0 0 0.06
   vertex -0.021213203435596423 0.021213203435596427 0.06
   vertex -0.0277163859753386 0.011480502970952697 0.06
  endloop
 endfacet
 facet normal 0 0 0
  outer loop
   vertex -0.0277163859753386 0.011480502970952697 -0.06
   vertex -0.03 3.673940397442059e-18 -0.06
   vertex -0.03 3.673940397442059e-18 0.06
  endloop
 endfacet
 facet normal 0 0 0
  outer loop
   vertex -0.0277163859753386 0.011480502970952697 -0.06
   vertex -0.03 3.673940397442059e-18 0.06
   vertex -0.0277163859753386 0.011480502970952697 0.06
  endloop
 endfacet
 facet normal 0 0 0
  outer loop
   vertex 0 0 -0.06
   vertex -0.03 3.673940397442059e-18 -0.06
   vertex -0.0277163859753386 0.011480502970952697 -0.06
  endloop
 endfacet
 facet normal 0 0 0
  outer loop
   vertex 0 0 0.06
   vertex -0.0277163859753386 0.011480502970952697 0.06
   vertex -0.03 3.673940397442059e-18 0.06
  endloop
 endfacet
 facet normal 0 0 0
  outer loop
   vertex -0.03 3.673940397442059e-18 -0.06
   vertex -0.027716385975338605 -0.01148050297095269 -0.06
   vertex -0.027716385975338605 -0.01148050297095269 0.06
  endloop
 endfacet
 facet normal 0 0 0
  outer loop
   vertex -0.03 3.673940397442059e-18 -0.06
   vertex -0.027716385975338605 -0.01148050297095269 0.06
   vertex -0.03 3.673940397442059e-18 0.06
  endloop
 endfacet
 facet normal 0 0 0
  outer loop
   vertex 0 0 -0.06
   vertex -0.027716385975338605 -0.01148050297095269 -0.06
   vertex -0.03 3.673940397442059e-18 -0.06
  endloop
 endfacet
 facet normal 0 0 0
  outer loop
   vertex 0 0 0.06
   vertex -0.03 3.673940397442059e-18 0.06
   vertex -0.027716385975338605 -0.01148050297095269 0.06
  endloop
 endfacet
 facet normal 0 0 0
  outer loop
   vertex -0.027716385975338605 -0.01148050297095269 -0.06
   vertex -0.02121320343559643 -0.021213203435596423 -0.06
   vertex -0.02121320343559643 -0.021213203435596423 0.06
  endloop
 endfacet
 facet normal 0 0 0
  outer loop
   vertex -0.027716385975338605 -0.01148050297095269 -0.06
   vertex -0.02121320343559643 -0.021213203435596423 0.06
   vertex -0.027716385975338605 -0.01148050297095269 0.06
  endloop
 endfacet
 facet normal 0 0 0
  outer loop
   vertex 0 0 -0.06
   vertex -0.02121320343559643 -0.021213203435596423 -0.06
   vertex -0.027716385975338605 -0.01148050297095269 -0.06
  endloop
 endfacet
 facet normal 0 0 0
  outer loop
   vertex 0 0 0.06
   vertex -0.027716385975338605 -0.01148050297095269 0.06
   vertex -0.02121320343559643 -0.021213203435596423 0.06
  endloop
 endfacet
 facet normal 0 0 0
  outer loop
   vertex -0.02121320343559643 -0.021213203435596423 -0.06
   vertex -0.011480502970952709 -0.027716385975338594 -0.06
   vertex -0.011480502970952709 -0.027716385975338594 0.06
  endloop
 endfacet
 facet normal 0 0 0
  outer loop
   vertex -0.02121320343559643 -0.021213203435596423 -0.06
   vertex -0.011480502970952709 -0.027716385975338594 0.06
   vertex -0.02121320343559643 -0.021213203435596423 0.06
  endloop
 endfacet
 facet normal 0 0 0
  outer loop
   vertex 0 0 -0.06
   vertex -0.011480502970952709 -0.027716385975338594 -0.06
   vertex -0.02121320343559643 -0.021213203435596423 -0.06
  endloop
 endfacet
 facet normal 0 0 0
  outer loop
   vertex 0 0 0.06
   vertex -0.02121320343559643 -0.021213203435596423 0.06
   vertex -0.011480502970952709 -0.027716385975338594 0.06
  endloop
 endfacet
 facet normal 0 0 0
  outer loop
   vertex -0.011480502970952709 -0.027716385975338594 -0.06
   vertex -5.510910596163089e-18 -0.03 -0.06
   vertex -5.510910596163089e-18 -0.03 0.06
  endloop
 endfacet
 facet normal 0 0 0
  outer loop
   vertex -0.011480502970952709 -0.027716385975338594 -0.06
   vertex -5.510910596163089e-18 -0.03 0.06
   vertex -0.011480502970952709 -0.027716385975338594 0.06
  endloop
 endfacet
 facet normal 0 0 0
  outer loop
   vertex 0 0 -0.06
   vertex -5.510910596163089e-18 -0.03 -0.06
   vertex -0.011480502970952709 -0.027716385975338594 -0.06
  endloop
 endfacet
 facet normal 0 0 0
  outer loop
   vertex 0 0 0.06
   vertex -0.011480502970952709 -0.027716385975338594 0.06
   vertex -5.510910596163089e-18 -0.03 0.06
  endloop
 endfacet
 facet normal 0 0 0
  outer loop
   vertex -5.510910596163089e-18 -0.03 -0.06
   vertex 0.0114805029709527 -0.027716385975338598 -0.06
   vertex 0.0114805029709527 -0.027716385975338598 0.06
  endloop
 endfacet
 facet normal 0 0 0
  outer loop
   vertex -5.510910596163089e-18 -0.03 -0.06
   vertex 0.0114805029709527 -0.027716385975338598 0.06
   vertex -5.510910596163089e-18 -0.03 0.06
  endloop
 endfacet
 facet normal 0 0 0
  outer loop
   vertex 0 0 -0.06
   vertex 0.0114805029709527 -0.027716385975338598 -0.06
   vertex -5.510910596163089e-18 -0.03 -0.06
  endloop
 endfacet
 facet normal 0 0 0
  outer loop
   vertex 0 0 0.06
   vertex -5.510910596163089e-18 -0.03 0.06
   vertex 0.0114805029709527 -0.027716385975338598 0.06
  endloop
 endfacet
 facet normal 0 0 0
  outer loop
   vertex 0.0114805029709527 -0.027716385975338598 -0.06
   vertex 0.02121320343559642 -0.02121320343559643 -0.06
   vertex 0.02121320343559642 -0.02121320343559643 0.06
  endloop
 endfacet
 facet normal 0 0 0
  outer loop
   vertex 0.0114805029709527 -0.027716385975338598 -0.06
   vertex 0.02121320343559642 -0.02121320343559643 0.06
   vertex 0.0114805029709527 -0.027716385975338598 0.06
  endloop
 endfacet
 facet normal 0 0 0
  outer loop
   vertex 0 0 -0.06
   vertex 0.02121320343559642 -0.02121320343559643 -0.06
   vertex 0.0114805029709527 -0.027716385975338598 -0.06
  endloop
 endfacet
 facet normal 0 0 0
  outer loop
   vertex 0 0 0.06
   vertex 0.0114805029709527 -0.027716385975338598 0.06
   vertex 0.02121320343559642 -0.02121320343559643 0.06
  endloop
 endfacet
 facet normal 0 0 0
  outer loop
   vertex 0.02121320343559642 -0.02121320343559643 -0.06
   vertex 0.027716385975338594 -0.01148050297095271 -0.06
   vertex 0.027716385975338594 -0.01148050297095271 0.06
  endloop
 endfacet
 facet normal 0 0 0
  outer loop
   vertex 0.02121320343559642 -0.02121320343559643 -0.06
   vertex 0.027716385975338594 -0.01148050297095271 0.06
   vertex 0.02121320343559642 -0.02121320343559643 0.06
  endloop
 endfacet
 facet normal 0 0 0
  outer loop
   vertex 0 0 -0.06
   vertex 0.027716385975338594 -0.01148050297095271 -0.06
   vertex 0.02121320343559642 -0.02121320343559643 -0.06
  endloop
 endfacet
 facet normal 0 0 0
  outer loop
   vertex 0 0 0.06
   vertex 0.02121320343559642 -0.02121320343559643 0.06
   vertex 0.027716385975338594 -0.01148050297095271 0.06
  endloop
 endfacet
 facet normal 0 0 0
  outer loop
   vertex 0.027716385975338594 -0.01148050297095271 -0.06
   vertex 0.03 -7.347880794884118e-18 -0.06
   vertex 0.03 -7.347880794884118e-18 0.06
  endloop
 endfacet
 facet normal 0 0 0
  outer loop
   vertex 0.027716385975338594 -0.01148050297095271 -0.06
   vertex 0.03 -7.347880794884118e-18 0.06
   vertex 0.027716385975338594 -0.01148050297095271 0.06
  endloop
 endfacet
 facet normal 0 0 0
  outer loop
   vertex 0 0 -0.06
   vertex 0.03 -7.347880794884118e-18 -0.06
   vertex 0.027716385975338594 -0.01148050297095271 -0.06
  endloop
 endfacet
 facet normal 0 0 0
  outer loop
   vertex 0 0 0.06
   vertex 0.027716385975338594 -0.01148050297095271 0.06
   vertex 0.03 -7.347880794884118e-18 0.06
  endloop
 endfacet
endsolid cylinder_object
