solid calibration_cube
 facet normal 0 0 0
  outer loop
   vertex -0.05 -0.05 -0.05
   vertex 0.05 -0.05 -0.05
   vertex 0.05 0.05 -0.05
  endloop
 endfacet
 facet normal 0 0 0
  outer loop
   vertex -0.05 -0.05 -0.05
   vertex 0.05 0.05 -0.05
   vertex -0.05 0.05 -0.05
  endloop
 endfacet
 facet normal 0 0 0
  outer loop
   vertex -0.05 -0.05 0.05
   vertex 0.05 0.05 0.05
   vertex 0.05 -0.05 0.05
  endloop
 endfacet
 facet normal 0 0 0
  outer loop
   vertex -0.05 -0.05 0.05
   vertex -0.05 0.05 0.05
   vertex 0.05 0.05 0.05
  endloop
 endfacet
 facet normal 0 0 0
  outer loop
   vertex -0.05 -0.05 -0.05
   vertex -0.05 -0.05 0.05
   vertex 0.05 -0.05 0.05
  endloop
 endfacet
 facet normal 0 0 0
  outer loop
   vertex -0.05 -0.05 -0.05
   vertex 0.05 -0.05 0.05
   vertex 0.05 -0.05 -0.05
  endloop
 endfacet
 facet normal 0 0 0
  outer loop
   vertex 0.05 -0.05 -0.05
   vertex 0.05 -0.05 0.05
   vertex 0.05 0.05 0.05
  endloop
 endfacet
 facet normal 0 0 0
  outer loop
   vertex 0.05 -0.05 -0.05
   vertex 0.05 0.05 0.05
   vertex 0.05 0.05 -0.05
  endloop
 endfacet
 facet normal 0 0 0
  outer loop
   vertex 0.05 0.05 -0.05
   vertex 0.05 0.05 0.05
   vertex -0.05 0.05 0.05
  endloop
 endfacet
 facet normal 0 0 0
  outer loop
   vertex 0.05 0.05 -0.05
   vertex -0.05 0.05 0.05
   vertex -0.05 0.05 -0.05
  endloop
 endfacet
 facet normal 0 0 0
  outer loop
   vertex -0.05 0.05 -0.05
   vertex -0.05 0.05 0.05
   vertex -0.05 -0.05 0.05
  endloop
 endfacet
 facet normal 0 0 0
  outer loop
   vertex -0.05 0.05 -0.05
   vertex -0.05 -0.05 0.05
   vertex -0.05 -0.05 -0.05
  endloop
 endfacet
endsolid calibration_cube
